# xmcd CD database file
#
# Track frame offsets:
#	150
#	32161
#	44922
#	86940
#	111338
#	144491
#	172858
#	201839
#	217739
#	234125
#	285902
#
# Disc length: 3818 seconds
#
# Revision: 0
# Processed by: cddbd v1.5.2PL0 Copyright (c) Steve Scherf et al.
# Submitted via: CDex 1.70beta2
#
DISCID=970ee80b
DTITLE=Lifescapes - Dream
DYEAR=2009
DGENRE=New Age
TTITLE0=Day's End
TTITLE1=Moonglow
TTITLE2=Release
TTITLE3=Drifting Thoughts
TTITLE4=Distant Stars
TTITLE5=The Cool Side Of The Pillow
TTITLE6=Closed Eyes
TTITLE7=The Slow Recline
TTITLE8=Peace
TTITLE9=Dreamtime
TTITLE10=Inner Peace for Busy People (PDF)
EXTD=YEAR: 2009
EXTT0=
EXTT1=
EXTT2=
EXTT3=
EXTT4=
EXTT5=
EXTT6=
EXTT7=
EXTT8=
EXTT9=
EXTT10=
PLAYORDER=
